<svg viewBox="0 0 400 300" xmlns="http://www.w3.org/2000/svg">
  <defs>
    <linearGradient id="cgvGrad" x1="0%" y1="0%" x2="100%" y2="100%">
      <stop offset="0%" style="stop-color:#b91c1c;stop-opacity:1" />
      <stop offset="100%" style="stop-color:#dc2626;stop-opacity:1" />
    </linearGradient>
  </defs>
  
  <!-- Background -->
  <rect width="400" height="300" fill="url(#cgvGrad)"/>
  
  <!-- Main POS terminal -->
  <rect x="80" y="60" width="240" height="180" rx="10" fill="#1f2937"/>
  
  <!-- Screen -->
  <rect x="100" y="80" width="200" height="120" rx="5" fill="#000000"/>
  <rect x="105" y="85" width="190" height="110" rx="3" fill="#f8fafc"/>
  
  <!-- Movie seat layout -->
  <text x="200" y="105" font-family="Arial, sans-serif" font-size="12" font-weight="bold" fill="#1f2937" text-anchor="middle">Screen</text>
  <rect x="180" y="110" width="40" height="3" fill="#4b5563"/>
  
  <!-- Seats -->
  <rect x="130" y="125" width="8" height="8" rx="2" fill="#10b981"/>
  <rect x="142" y="125" width="8" height="8" rx="2" fill="#10b981"/>
  <rect x="154" y="125" width="8" height="8" rx="2" fill="#ef4444"/>
  <rect x="166" y="125" width="8" height="8" rx="2" fill="#10b981"/>
  <rect x="178" y="125" width="8" height="8" rx="2" fill="#10b981"/>
  <rect x="190" y="125" width="8" height="8" rx="2" fill="#ef4444"/>
  <rect x="202" y="125" width="8" height="8" rx="2" fill="#10b981"/>
  <rect x="214" y="125" width="8" height="8" rx="2" fill="#10b981"/>
  <rect x="226" y="125" width="8" height="8" rx="2" fill="#10b981"/>
  <rect x="238" y="125" width="8" height="8" rx="2" fill="#10b981"/>
  
  <!-- Second row -->
  <rect x="130" y="140" width="8" height="8" rx="2" fill="#10b981"/>
  <rect x="142" y="140" width="8" height="8" rx="2" fill="#10b981"/>
  <rect x="154" y="140" width="8" height="8" rx="2" fill="#10b981"/>
  <rect x="166" y="140" width="8" height="8" rx="2" fill="#10b981"/>
  <rect x="178" y="140" width="8" height="8" rx="2" fill="#ef4444"/>
  <rect x="190" y="140" width="8" height="8" rx="2" fill="#ef4444"/>
  <rect x="202" y="140" width="8" height="8" rx="2" fill="#10b981"/>
  <rect x="214" y="140" width="8" height="8" rx="2" fill="#10b981"/>
  <rect x="226" y="140" width="8" height="8" rx="2" fill="#10b981"/>
  <rect x="238" y="140" width="8" height="8" rx="2" fill="#10b981"/>
  
  <!-- Selection info -->
  <text x="120" y="165" font-family="Arial, sans-serif" font-size="10" fill="#1f2937">선택된 좌석: A7, A8</text>
  <text x="120" y="180" font-family="Arial, sans-serif" font-size="10" fill="#1f2937">영화: 아바타</text>
  <text x="120" y="195" font-family="Arial, sans-serif" font-size="10" fill="#1f2937">금액: 24,000원</text>
  
  <!-- POS buttons -->
  <rect x="90" y="210" width="40" height="20" rx="3" fill="#059669"/>
  <text x="110" y="224" font-family="Arial, sans-serif" font-size="10" fill="white" text-anchor="middle">결제</text>
  
  <rect x="140" y="210" width="40" height="20" rx="3" fill="#7c3aed"/>
  <text x="160" y="224" font-family="Arial, sans-serif" font-size="10" fill="white" text-anchor="middle">취소</text>
  
  <rect x="190" y="210" width="40" height="20" rx="3" fill="#dc2626"/>
  <text x="210" y="224" font-family="Arial, sans-serif" font-size="10" fill="white" text-anchor="middle">인쇄</text>
  
  <rect x="240" y="210" width="40" height="20" rx="3" fill="#2563eb"/>
  <text x="260" y="224" font-family="Arial, sans-serif" font-size="10" fill="white" text-anchor="middle">조회</text>
  
  <!-- CGV Logo -->
  <circle cx="50" cy="50" r="20" fill="#ffffff"/>
  <text x="50" y="56" font-family="Arial, sans-serif" font-size="14" font-weight="bold" fill="#dc2626" text-anchor="middle">CGV</text>
</svg>